<?xml version="1.0" encoding="UTF-8" standalone="no"?>
<svg
   width="100"
   height="60"
   version="1.1"
   id="svg49"
   sodipodi:docname="verifone.svg"
   inkscape:version="1.2.2 (732a01da63, 2022-12-09, custom)"
   xmlns:inkscape="http://www.inkscape.org/namespaces/inkscape"
   xmlns:sodipodi="http://sodipodi.sourceforge.net/DTD/sodipodi-0.dtd"
   xmlns="http://www.w3.org/2000/svg"
   xmlns:svg="http://www.w3.org/2000/svg">
  <defs
     id="defs53" />
  <sodipodi:namedview
     id="namedview51"
     pagecolor="#ffffff"
     bordercolor="#000000"
     borderopacity="0.25"
     inkscape:showpageshadow="2"
     inkscape:pageopacity="0.0"
     inkscape:pagecheckerboard="0"
     inkscape:deskcolor="#d1d1d1"
     showgrid="false"
     inkscape:zoom="4.535"
     inkscape:cx="40.463065"
     inkscape:cy="43.439912"
     inkscape:window-width="1222"
     inkscape:window-height="960"
     inkscape:window-x="0"
     inkscape:window-y="0"
     inkscape:window-maximized="1"
     inkscape:current-layer="svg49" />
  <g
     fill="none"
     fill-rule="evenodd"
     id="g47"
     style="display:inline">
    <rect
       fill="#ffffff"
       width="100"
       height="60"
       rx="4"
       id="rect41"
       x="0"
       y="0"
       style="display:inline" />
    <path
       d="m 43.129,25.648 h 3.082 l 0.495,-2.486 h -3.082 z m -0.32,1.599 h 3.083 l -1.958,9.816 c -0.143,0.05 -0.584,0.224 -1.194,0.224 -0.822,0 -1.576,-0.319 -1.576,-1.45 0,-0.213 0.025,-0.455 0.08,-0.73 0.612,-3.064 1.565,-7.86 1.565,-7.86 z m 30.606,-0.224 c -2.051,0 -2.867,1.196 -3.25,1.924 h -0.036 l 0.118,-1.698 h -3.046 c -0.02,0.373 -0.151,1.55 -0.347,2.566 0,0 -0.703,3.563 -0.836,4.245 -0.102,0.521 -0.287,1.292 -0.287,1.739 0,0.952 0.485,1.489 1.567,1.489 0.607,0 1.045,-0.166 1.204,-0.225 l 1.018,-5.112 c 0.283,-1.412 1.308,-2.335 2.527,-2.335 0.984,0 1.454,0.714 1.454,1.298 0,0.508 -0.128,1.071 -0.227,1.57 l -0.438,2.189 c -0.052,0.262 -0.164,0.767 -0.164,1.163 0,0.968 0.548,1.452 1.59,1.452 0.568,0 0.928,-0.142 1.183,-0.225 l 0.914,-4.583 c 0.198,-1.035 0.271,-1.58 0.271,-2.24 0,-1.898 -1.114,-3.217 -3.215,-3.217 z m -13.691,2.373 c -1.723,0 -2.677,1.754 -2.677,3.317 0,1.319 0.598,2.202 1.957,2.202 1.537,0 2.74,-1.302 2.74,-3.525 0,-1.017 -0.544,-1.994 -2.02,-1.994 z m -0.909,7.892 c -3.3,0 -4.879,-1.97 -4.879,-4.483 0,-3.447 2.377,-5.782 6.05,-5.782 3.187,0 4.879,1.92 4.879,4.388 0,3.698 -2.539,5.877 -6.05,5.877 z M 47.273,34.924 c -0.07,0.354 -0.114,0.601 -0.114,0.905 0,1.125 0.755,1.459 1.555,1.459 0.64,0 1.037,-0.175 1.182,-0.225 l 1.481,-7.44 2.397,-0.001 0.473,-2.375 h -2.396 l 0.116,-0.585 c 0.217,-1.097 0.736,-1.58 1.633,-1.58 a 5.27,5.27 0 0 1 1.251,0.15 l 0.451,-2.258 C 55.11,22.926 54.225,22.71 52.914,22.71 c -2.089,0 -3.457,1.263 -3.861,3.297 l -0.248,1.24 h -1.56 l -0.474,2.375 h 1.562 z m -7.095,-7.901 c -1.547,0 -2.398,1.07 -2.73,1.923 h -0.036 l 0.119,-1.7 h -3.047 c -0.027,0.59 -0.151,1.585 -0.462,3.15 -0.314,1.587 -0.62,3.17 -0.937,4.71 -0.054,0.263 -0.079,0.52 -0.079,0.739 0,0.806 0.4,1.442 1.584,1.442 0.585,0 0.992,-0.152 1.188,-0.224 l 0.906,-4.55 c 0.327,-1.742 0.92,-2.893 2.641,-2.893 0.783,0 1.527,0.167 1.682,0.212 l 0.522,-2.618 c -0.112,-0.039 -0.564,-0.191 -1.351,-0.191 z m 44.706,4.202 c 0.165,-0.9 -0.36,-1.829 -1.55,-1.829 -1.45,0 -2.087,0.987 -2.372,1.83 h 3.922 z m 1.375,3.653 c 0,1.365 -1.327,2.412 -3.678,2.412 -3.249,0 -4.838,-2.015 -4.838,-4.482 0,-2.45 1.633,-5.783 5.618,-5.783 2.627,0 4.592,1.3 4.592,4.276 0,0.732 -0.164,1.527 -0.234,1.846 h -6.984 c -0.012,0.714 0.592,1.951 3.02,1.951 1.082,0 2.307,-0.38 2.504,-0.477 z M 29.193,31.225 c 0.164,-0.9 -0.361,-1.829 -1.55,-1.829 -1.45,0 -2.088,0.987 -2.372,1.83 h 3.922 z m 1.375,3.653 c 0,1.365 -1.328,2.412 -3.678,2.412 -3.25,0 -4.838,-2.015 -4.838,-4.482 0,-2.45 1.632,-5.783 5.618,-5.783 2.627,0 4.592,1.3 4.592,4.276 0,0.732 -0.164,1.527 -0.235,1.846 h -6.983 c -0.012,0.714 0.592,1.951 3.02,1.951 1.082,0 2.307,-0.38 2.504,-0.477 z M 12.048,23.907 h 3.1 v 9.76 c 0,1.468 0.734,2.217 1.911,2.217 0.12,0 0.191,-0.016 0.214,-0.021 -0.516,0.778 -1.185,1.416 -2.722,1.416 -1.625,0 -2.504,-1.124 -2.504,-2.81 V 23.906 Z"
       fill="#1a1919"
       id="path43"
       style="display:none" />
    <path
       d="m 16.012,32.659 v 1.024 c 0,0.99 0.536,1.344 1.122,1.344 0.6,0 0.92,-0.404 1.214,-0.864 0.493,-0.77 6.515,-10.256 6.515,-10.256 H 21.64 l -5.628,8.752"
       fill="#00a3da"
       id="path45"
       style="display:none" />
  </g>
  <path
     fill="#53ae94"
     d="M 31.57701,17.432419 H 9.2813288 L 2.7985471,31.289734 20.429169,48.286006 38.059788,31.289734 Z"
     id="path175"
     style="stroke-width:0.0176306" />
  <path
     d="m 21.907714,27.938032 v -2.559456 h 5.852822 V 21.478988 H 11.823423 v 3.899588 h 5.853323 v 2.557443 c -4.757158,0.218124 -8.334424,1.160597 -8.334424,2.289145 0,1.128551 3.578942,2.070855 8.334424,2.291499 v 8.198007 h 4.232984 v -8.199518 c 4.74843,-0.219133 8.318144,-1.160598 8.318144,-2.288309 0,-1.127712 -3.569714,-2.069007 -8.318144,-2.28814 m 0,3.882138 v -0.0021 c -0.119299,0.0076 -0.732904,0.04446 -2.098876,0.04446 -1.092139,0 -1.860612,-0.03104 -2.130922,-0.04514 v 0.0035 c -4.203957,-0.186189 -7.340942,-0.918085 -7.340942,-1.793778 0,-0.875691 3.137659,-1.606579 7.339769,-1.792993 v 2.857617 c 0.275343,0.01897 1.062608,0.06544 2.149211,0.06544 1.305231,0 1.961455,-0.05436 2.08176,-0.06544 V 28.23479 c 4.194728,0.186748 7.324497,0.919314 7.324497,1.791988 0,0.87267 -3.13128,1.605573 -7.324497,1.792322"
     fill="#ffffff"
     id="path177"
     style="stroke-width:0.0167789" />
  <text
     xml:space="preserve"
     style="font-style:italic;font-weight:bold;font-size:19.6321px;font-family:'Microsoft YaHei';-inkscape-font-specification:'Microsoft YaHei Bold Italic';fill:#1a1919;fill-opacity:1;fill-rule:evenodd;stroke-width:6.21112"
     x="39.643387"
     y="39.157597"
     id="text359"><tspan
       sodipodi:role="line"
       id="tspan357"
       x="39.643387"
       y="39.157597"
       style="stroke-width:6.21112">USDT</tspan></text>
</svg>
