<?xml version="1.0" encoding="UTF-8" standalone="no"?>
<svg
   viewBox="0 0 232 68"
   version="1.1"
   id="svg29"
   sodipodi:docname="logo.svg"
   inkscape:version="1.2.2 (732a01da63, 2022-12-09, custom)"
   xml:space="preserve"
   xmlns:inkscape="http://www.inkscape.org/namespaces/inkscape"
   xmlns:sodipodi="http://sodipodi.sourceforge.net/DTD/sodipodi-0.dtd"
   xmlns="http://www.w3.org/2000/svg"
   xmlns:svg="http://www.w3.org/2000/svg"><defs
     id="defs33" /><sodipodi:namedview
     id="namedview31"
     pagecolor="#ffffff"
     bordercolor="#000000"
     borderopacity="0.25"
     inkscape:showpageshadow="2"
     inkscape:pageopacity="0.0"
     inkscape:pagecheckerboard="0"
     inkscape:deskcolor="#d1d1d1"
     showgrid="false"
     inkscape:zoom="4.8448276"
     inkscape:cx="175.13523"
     inkscape:cy="27.864769"
     inkscape:window-width="1222"
     inkscape:window-height="960"
     inkscape:window-x="0"
     inkscape:window-y="0"
     inkscape:window-maximized="1"
     inkscape:current-layer="svg29" /><g
     inkscape:groupmode="layer"
     id="layer1"
     inkscape:label="background"
     style="display:inline;fill:#000000" /><path
     d="M 64.6,16.2 C 63,9.9 58.1,5 51.8,3.4 40,1.5 28,1.5 16.2,3.4 9.9,5 5,9.9 3.4,16.2 1.5,28 1.5,40 3.4,51.8 5,58.1 9.9,63 16.2,64.6 28,66.5 40,66.5 51.8,64.6 58.1,63 63,58.1 64.6,51.8 66.5,40 66.5,28 64.6,16.2 Z M 33.3,36.3 c -2.8,4.4 -6.6,8.2 -11.1,11 -1.5,0.9 -3.3,0.9 -4.8,0.1 -1.5,-0.8 -2.4,-2.3 -2.5,-4 0,-1.7 0.9,-3.3 2.4,-4.1 2.3,-1.4 4.4,-3.2 6.1,-5.3 -1.8,-2.1 -3.8,-3.8 -6.1,-5.3 -2.3,-1.3 -3,-4.2 -1.7,-6.4 1.3,-2.2 4.3,-2.9 6.5,-1.6 4.5,2.8 8.2,6.5 11.1,10.9 1,1.4 1,3.3 0.1,4.7 z M 49.2,46 H 37.8 C 35.7,46 34,45 34,43 c 0,-2 1.7,-3 3.8,-3 h 11.4 c 2.1,0 3.8,1 3.8,3 0,2 -1.7,3 -3.8,3 z"
     fill="#206bc4"
     id="path25"
     style="display:inline;fill:#ffffff"
     inkscape:label="path25" /><path
     d="m 105.8,46.1 c 0.4,0 0.9,0.2 1.2,0.6 0.3,0.4 0.6,1 0.6,1.7 0,0.9 -0.5,1.6 -1.4,2.2 -0.9,0.6 -2,0.9 -3.2,0.9 -2,0 -3.7,-0.4 -5,-1.3 -1.3,-0.9 -2,-2.6 -2,-5.4 V 31.6 H 93.8 C 93,31.6 92.4,31.3 91.9,30.8 91.4,30.3 91,29.7 91,28.9 c 0,-0.7 0.3,-1.4 0.8,-1.8 0.5,-0.4 1.2,-0.7 1.9,-0.7 h 2.2 v -3.1 c 0,-0.8 0.3,-1.5 0.8,-2.1 0.5,-0.6 1.3,-0.8 2.1,-0.8 0.8,0 1.5,0.3 2,0.8 0.5,0.5 0.8,1.3 0.8,2.1 v 3.1 h 3.4 c 0.8,0 1.4,0.3 1.9,0.8 0.5,0.5 0.8,1.2 0.8,1.9 0,0.7 -0.3,1.4 -0.8,1.8 -0.5,0.4 -1.2,0.7 -1.9,0.7 h -3.4 v 13 c 0,0.7 0.2,1.2 0.5,1.5 0.3,0.3 0.8,0.5 1.4,0.5 0.3,0 0.6,-0.1 1.1,-0.2 0.5,-0.2 0.8,-0.3 1.2,-0.3 z m 28,-20.7 c 0.8,0 1.5,0.3 2.1,0.8 0.5,0.5 0.8,1.2 0.8,2.1 v 20.3 c 0,0.8 -0.3,1.5 -0.8,2.1 -0.5,0.6 -1.2,0.8 -2.1,0.8 -0.9,0 -1.5,-0.3 -2,-0.8 -0.5,-0.5 -0.8,-1.2 -0.8,-2.1 -0.8,0.9 -1.9,1.7 -3.2,2.4 -1.3,0.7 -2.8,1 -4.3,1 -2.2,0 -4.2,-0.6 -6,-1.7 -1.8,-1.1 -3.2,-2.7 -4.2,-4.7 -1,-2 -1.6,-4.3 -1.6,-6.9 0,-2.6 0.5,-4.9 1.5,-6.9 1,-2 2.4,-3.6 4.2,-4.8 1.8,-1.1 3.7,-1.7 5.9,-1.7 1.5,0 3,0.3 4.3,0.8 1.3,0.6 2.5,1.3 3.4,2.1 0,-0.8 0.3,-1.5 0.8,-2.1 0.5,-0.5 1.2,-0.7 2,-0.7 z m -9.7,21.3 c 2.1,0 3.8,-0.8 5.1,-2.3 1.3,-1.5 2,-3.4 2,-5.7 0,-2.3 -0.7,-4.2 -2,-5.8 -1.3,-1.5 -3,-2.3 -5.1,-2.3 -2,0 -3.7,0.8 -5,2.3 -1.3,1.5 -2,3.5 -2,5.8 0,2.3 0.6,4.2 1.9,5.7 1.3,1.5 3,2.3 5.1,2.3 z m 32.1,-21.3 c 2.2,0 4.2,0.6 6,1.7 1.8,1.1 3.2,2.7 4.2,4.7 1,2 1.6,4.3 1.6,6.9 0,2.6 -0.5,4.9 -1.5,6.9 -1,2 -2.4,3.6 -4.2,4.8 -1.8,1.1 -3.7,1.7 -5.9,1.7 -1.5,0 -3,-0.3 -4.3,-0.9 -1.3,-0.6 -2.5,-1.4 -3.4,-2.3 v 0.3 c 0,0.8 -0.3,1.5 -0.8,2.1 -0.5,0.6 -1.2,0.8 -2.1,0.8 -0.9,0 -1.5,-0.3 -2.1,-0.8 -0.5,-0.5 -0.8,-1.2 -0.8,-2.1 V 18.9 c 0,-0.8 0.3,-1.5 0.8,-2.1 0.5,-0.6 1.2,-0.8 2.1,-0.8 0.9,0 1.5,0.3 2.1,0.8 0.5,0.6 0.8,1.3 0.8,2.1 v 10 c 0.8,-1 1.8,-1.8 3.2,-2.5 1.3,-0.7 2.8,-1 4.3,-1 z m -0.7,21.3 c 2,0 3.7,-0.8 5,-2.3 1.3,-1.5 2,-3.5 2,-5.8 0,-2.3 -0.6,-4.2 -1.9,-5.7 -1.3,-1.5 -3,-2.3 -5.1,-2.3 -2.1,0 -3.8,0.8 -5.1,2.3 -1.3,1.5 -2,3.4 -2,5.7 0,2.3 0.7,4.2 2,5.8 1.3,1.6 3,2.3 5.1,2.3 z m 23.6,1.9 c 0,0.8 -0.3,1.5 -0.8,2.1 -0.5,0.6 -1.3,0.8 -2.1,0.8 -0.8,0 -1.5,-0.3 -2,-0.8 -0.5,-0.5 -0.8,-1.3 -0.8,-2.1 V 18.9 c 0,-0.8 0.3,-1.5 0.8,-2.1 0.5,-0.6 1.3,-0.8 2.1,-0.8 0.8,0 1.5,0.3 2,0.8 0.5,0.5 0.8,1.3 0.8,2.1 z m 29.3,-10.5 c 0,0.8 -0.3,1.4 -0.9,1.9 -0.6,0.5 -1.2,0.7 -2,0.7 h -15.8 c 0.4,1.9 1.3,3.4 2.6,4.4 1.4,1.1 2.9,1.6 4.7,1.6 1.3,0 2.3,-0.1 3.1,-0.4 0.7,-0.2 1.3,-0.5 1.8,-0.8 0.4,-0.3 0.7,-0.5 0.9,-0.6 0.6,-0.3 1.1,-0.4 1.6,-0.4 0.7,0 1.2,0.2 1.7,0.7 0.5,0.5 0.7,1 0.7,1.7 0,0.9 -0.4,1.6 -1.3,2.4 -0.9,0.7 -2.1,1.4 -3.6,1.9 -1.5,0.5 -3,0.8 -4.6,0.8 -2.7,0 -5,-0.6 -7,-1.7 -2,-1.1 -3.5,-2.7 -4.6,-4.6 -1.1,-1.9 -1.6,-4.2 -1.6,-6.6 0,-2.8 0.6,-5.2 1.7,-7.2 1.1,-2 2.7,-3.7 4.6,-4.8 1.9,-1.1 3.9,-1.7 6,-1.7 2.1,0 4.1,0.6 6,1.7 1.9,1.1 3.4,2.7 4.5,4.7 0.9,1.9 1.5,4.1 1.5,6.3 z m -12.2,-7.5 c -3.7,0 -5.9,1.7 -6.6,5.2 h 12.6 v -0.3 c -0.1,-1.3 -0.8,-2.5 -2,-3.5 -1.2,-1 -2.5,-1.4 -4,-1.4 z m 30.3,-5.2 c 1,0 1.8,0.3 2.4,0.8 0.7,0.5 1,1.2 1,1.9 0,1 -0.3,1.7 -0.8,2.2 -0.5,0.5 -1.1,0.8 -1.8,0.7 -0.5,0 -1,-0.1 -1.6,-0.3 -0.2,-0.1 -0.4,-0.1 -0.6,-0.2 -0.4,-0.1 -0.7,-0.1 -1.1,-0.1 -0.8,0 -1.6,0.3 -2.4,0.8 -0.8,0.5 -1.4,1.3 -1.9,2.3 -0.5,1 -0.7,2.3 -0.7,3.7 v 11.4 c 0,0.8 -0.3,1.5 -0.8,2.1 -0.5,0.6 -1.2,0.8 -2.1,0.8 -0.9,0 -1.5,-0.3 -2.1,-0.8 -0.5,-0.6 -0.8,-1.3 -0.8,-2.1 V 28.8 c 0,-0.8 0.3,-1.5 0.8,-2.1 0.5,-0.6 1.2,-0.8 2.1,-0.8 0.9,0 1.5,0.3 2.1,0.8 0.5,0.6 0.8,1.3 0.8,2.1 v 0.6 c 0.7,-1.3 1.8,-2.3 3.2,-3 1.3,-0.7 2.8,-1 4.3,-1 z"
     fill-rule="evenodd"
     clip-rule="evenodd"
     fill="#4a4a4a"
     id="path27"
     style="display:none" /><text
     xml:space="preserve"
     style="font-weight:bold;font-size:36px;font-family:'Microsoft YaHei';-inkscape-font-specification:'Microsoft YaHei Bold Italic';fill:#ffffff;fill-rule:evenodd;"
     x="74.048721"
     y="44.87291"
     id="text301"><tspan
       sodipodi:role="line"
       id="tspan299"
       x="74.048721"
       y="44.87291"
       style="fill:#ffffff;">古籍收藏</tspan></text></svg>
