<?xml version="1.0" encoding="UTF-8" standalone="no"?>
<svg
   id="svg22"
   version="1.1"
   viewBox="0 0 240 68"
   width="240"
   height="68"
   xmlns="http://www.w3.org/2000/svg"
   xmlns:svg="http://www.w3.org/2000/svg">
  <defs
     id="defs26" />
  <path
     d="M 64.6,16.2 C 63,9.9 58.1,5 51.8,3.4 40,1.5 28,1.5 16.2,3.4 9.9,5 5,9.9 3.4,16.2 1.5,28 1.5,40 3.4,51.8 5,58.1 9.9,63 16.2,64.6 28,66.5 40,66.5 51.8,64.6 58.1,63 63,58.1 64.6,51.8 66.5,40 66.5,28 64.6,16.2 Z M 33.3,36.3 c -2.8,4.4 -6.6,8.2 -11.1,11 -1.5,0.9 -3.3,0.9 -4.8,0.1 -1.5,-0.8 -2.4,-2.3 -2.5,-4 0,-1.7 0.9,-3.3 2.4,-4.1 2.3,-1.4 4.4,-3.2 6.1,-5.3 -1.8,-2.1 -3.8,-3.8 -6.1,-5.3 -2.3,-1.3 -3,-4.2 -1.7,-6.4 1.3,-2.2 4.3,-2.9 6.5,-1.6 4.5,2.8 8.2,6.5 11.1,10.9 1,1.4 1,3.3 0.1,4.7 z M 49.2,46 H 37.8 C 35.7,46 34,45 34,43 c 0,-2 1.7,-3 3.8,-3 h 11.4 c 2.1,0 3.8,1 3.8,3 0,2 -1.7,3 -3.8,3 z"
     fill="#206bc4"
     id="path18" />
  <text
     xml:space="preserve"
     style="font-size:36px;line-height:0.9;fill:#4a4a4a;fill-opacity:1;fill-rule:evenodd"
     x="90.410736"
     y="47.079884"
     id="text4212"><tspan
       id="tspan4210"
       x="90.410736"
       y="47.079884"
       style="font-variant:normal;font-weight:bold;font-stretch:normal;font-size:36px;font-family:sans-serif;-inkscape-font-specification:'sans-serif Bold Italic';fill:#4a4a4a;fill-opacity:1">Admin</tspan></text>
</svg>
